<svg xmlns="http://www.w3.org/2000/svg" xmlns:xlink="http://www.w3.org/1999/xlink" width="48" height="48" viewBox="0 0 48 48"><defs><linearGradient id="a" x1="49.78" y1="45.82" x2="-0.09" y2="3.97" gradientUnits="userSpaceOnUse"><stop offset="0" stop-color="#acd58a"/><stop offset="1" stop-color="#8dc63f"/></linearGradient></defs><path d="M274.92,444.72l.27.27v-3.88a1.51,1.51,0,0,0-.18-1l-1.27-1.23c-.15-.17-.28,0-.28.42v4l.28.28Z" transform="translate(-273.46 -396.99)" fill="#0db14b"/><path d="M274.92,440.07c.15.16.27,0,.27-.42v-3.17a1.52,1.52,0,0,0-.18-1l-1.27-1.23c-.15-.16-.28,0-.28.42v3.21a1.81,1.81,0,0,0,.28,1Z" transform="translate(-273.46 -396.99)" fill="#0db14b"/><path d="M274.92,435.44c.15.16.27,0,.27-.42v-3.17a1.52,1.52,0,0,0-.18-1l-1.27-1.23c-.15-.16-.28,0-.28.42v3.21a1.81,1.81,0,0,0,.28,1Z" transform="translate(-273.46 -396.99)" fill="#0db14b"/><path d="M274.92,430.81c.15.17.27,0,.27-.42v-3.17a1.52,1.52,0,0,0-.18-1L273.74,425c-.15-.17-.28,0-.28.41v3.21a1.79,1.79,0,0,0,.28,1Z" transform="translate(-273.46 -396.99)" fill="#0db14b"/><path d="M274.92,426.18c.15.17.27,0,.27-.41V422.6a1.51,1.51,0,0,0-.18-1l-1.27-1.23c-.15-.17-.28,0-.28.42V424a1.76,1.76,0,0,0,.28,1Z" transform="translate(-273.46 -396.99)" fill="#0db14b"/><path d="M274.92,421.56c.15.16.27,0,.27-.42V418a1.52,1.52,0,0,0-.18-1l-1.27-1.23c-.15-.16-.28,0-.28.42v3.21a1.81,1.81,0,0,0,.28,1Z" transform="translate(-273.46 -396.99)" fill="#0db14b"/><path d="M274.92,416.93c.15.16.27,0,.27-.42v-3.17a1.52,1.52,0,0,0-.18-1l-1.27-1.23c-.15-.16-.28,0-.28.42v3.21a1.81,1.81,0,0,0,.28,1Z" transform="translate(-273.46 -396.99)" fill="#0db14b"/><path d="M274.92,412.3c.15.17.27,0,.27-.42v-3.17a1.52,1.52,0,0,0-.18-1l-1.27-1.22c-.15-.17-.28,0-.28.41v3.21a1.79,1.79,0,0,0,.28,1Z" transform="translate(-273.46 -396.99)" fill="#0db14b"/><path d="M274.92,407.67c.15.17.27,0,.27-.41v-3.18a1.49,1.49,0,0,0-.18-1l-1.27-1.23c-.15-.17-.28,0-.28.41v3.21a1.76,1.76,0,0,0,.28,1Z" transform="translate(-273.46 -396.99)" fill="#0db14b"/><path d="M279.33,398.88c.41,0,.57-.35.36-.53l-1.09-1a1.92,1.92,0,0,0-1.1-.32h-3.34c-.41,0-.58.14-.38.32l1.31,1.24a1.2,1.2,0,0,0,.86.33Z" transform="translate(-273.46 -396.99)" fill="#dbeab7"/><path d="M283.94,398.88c.4,0,.56-.35.36-.53l-1.06-1a1.87,1.87,0,0,0-1.08-.32H278.9c-.41,0-.57.14-.38.32l1.28,1.24a1.16,1.16,0,0,0,.84.33Z" transform="translate(-273.46 -396.99)" fill="#dbeab7"/><path d="M288.54,398.88c.4,0,.56-.35.36-.53l-1.07-1a1.85,1.85,0,0,0-1.08-.32h-3.26c-.4,0-.57.14-.37.32l1.28,1.24a1.16,1.16,0,0,0,.84.33Z" transform="translate(-273.46 -396.99)" fill="#dbeab7"/><path d="M293.13,398.88c.41,0,.56-.35.37-.53l-1.07-1a1.85,1.85,0,0,0-1.08-.32h-3.26c-.4,0-.57.14-.38.32l1.29,1.24a1.13,1.13,0,0,0,.84.33Z" transform="translate(-273.46 -396.99)" fill="#dbeab7"/><path d="M297.73,398.88c.4,0,.56-.35.36-.53l-1.06-1a1.88,1.88,0,0,0-1.09-.32h-3.25c-.41,0-.57.14-.38.32l1.28,1.24a1.16,1.16,0,0,0,.84.33Z" transform="translate(-273.46 -396.99)" fill="#dbeab7"/><path d="M302.33,398.88c.4,0,.56-.35.36-.53l-1.07-1a1.85,1.85,0,0,0-1.08-.32h-3.26c-.4,0-.57.14-.37.32l1.28,1.24a1.15,1.15,0,0,0,.84.33Z" transform="translate(-273.46 -396.99)" fill="#dbeab7"/><path d="M306.92,398.88c.41,0,.56-.35.37-.53l-1.07-1a1.87,1.87,0,0,0-1.08-.32h-3.26c-.4,0-.57.14-.38.32l1.28,1.24a1.16,1.16,0,0,0,.84.33Z" transform="translate(-273.46 -396.99)" fill="#dbeab7"/><path d="M311.52,398.88c.4,0,.56-.35.36-.53l-1.06-1a1.91,1.91,0,0,0-1.09-.32h-3.26c-.4,0-.57.14-.37.32l1.28,1.24a1.16,1.16,0,0,0,.84.33Z" transform="translate(-273.46 -396.99)" fill="#dbeab7"/><path d="M316.12,398.88c.4,0,.56-.35.36-.53l-1.07-1a1.85,1.85,0,0,0-1.08-.32h-3.26c-.4,0-.57.14-.37.32l1.28,1.24a1.15,1.15,0,0,0,.84.33Z" transform="translate(-273.46 -396.99)" fill="#dbeab7"/><path d="M321.46,398.83,319.37,397h-3.7c-.41,0-.57.14-.38.32l1.28,1.24a1.16,1.16,0,0,0,.84.33Z" transform="translate(-273.46 -396.99)" fill="#dbeab7"/><path d="M274.92,403c.15.17.27,0,.27-.41v-3.17a1.51,1.51,0,0,0-.18-1l-1.27-1.23c-.15-.17-.28,0-.28.42v3.2a1.82,1.82,0,0,0,.28,1Z" transform="translate(-273.46 -396.99)" fill="#0db14b"/><rect x="1.72" y="1.82" width="46.26" height="46.15" fill="url(#a)"/><line x1="6.34" y1="47.99" x2="6.34" y2="1.85" fill="none" stroke="#00793f" stroke-width="0.28"/><line x1="10.96" y1="47.99" x2="10.96" y2="1.85" fill="none" stroke="#00793f" stroke-width="0.28"/><line x1="15.58" y1="47.99" x2="15.58" y2="1.85" fill="none" stroke="#00793f" stroke-width="0.28"/><line x1="20.2" y1="47.99" x2="20.2" y2="1.85" fill="none" stroke="#00793f" stroke-width="0.28"/><line x1="24.82" y1="47.99" x2="24.82" y2="1.85" fill="none" stroke="#00793f" stroke-width="0.28"/><line x1="29.44" y1="47.99" x2="29.44" y2="1.85" fill="none" stroke="#00793f" stroke-width="0.28"/><line x1="34.06" y1="1.85" x2="32.52" y2="0.19" fill="none" stroke="#00793f" stroke-width="0.28"/><line x1="29.46" y1="1.85" x2="27.92" y2="0.19" fill="none" stroke="#00793f" stroke-width="0.28"/><line x1="24.84" y1="1.85" x2="23.3" y2="0.19" fill="none" stroke="#00793f" stroke-width="0.28"/><line x1="20.21" y1="1.85" x2="18.67" y2="0.19" fill="none" stroke="#00793f" stroke-width="0.28"/><line x1="15.59" y1="1.85" x2="14.05" y2="0.19" fill="none" stroke="#00793f" stroke-width="0.28"/><line x1="10.97" y1="1.85" x2="9.42" y2="0.19" fill="none" stroke="#00793f" stroke-width="0.28"/><line x1="6.34" y1="1.85" x2="4.8" y2="0.19" fill="none" stroke="#00793f" stroke-width="0.28"/><line x1="1.72" y1="6.44" x2="0.18" y2="4.78" fill="none" stroke="#00793f" stroke-width="0.28"/><line x1="1.72" y1="11.03" x2="0.18" y2="9.37" fill="none" stroke="#00793f" stroke-width="0.28"/><line x1="1.72" y1="15.61" x2="0.18" y2="13.95" fill="none" stroke="#00793f" stroke-width="0.28"/><line x1="1.72" y1="20.2" x2="0.18" y2="18.54" fill="none" stroke="#00793f" stroke-width="0.28"/><line x1="1.72" y1="24.78" x2="0.18" y2="23.12" fill="none" stroke="#00793f" stroke-width="0.28"/><line x1="1.72" y1="29.55" x2="0.18" y2="27.89" fill="none" stroke="#00793f" stroke-width="0.28"/><line x1="1.72" y1="34.13" x2="0.18" y2="32.47" fill="none" stroke="#00793f" stroke-width="0.28"/><line x1="1.72" y1="38.72" x2="0.18" y2="37.06" fill="none" stroke="#00793f" stroke-width="0.28"/><line x1="1.72" y1="43.3" x2="0.18" y2="41.64" fill="none" stroke="#00793f" stroke-width="0.28"/><line x1="34.06" y1="47.99" x2="34.06" y2="1.85" fill="none" stroke="#00793f" stroke-width="0.28"/><polyline points="38.68 47.99 38.68 1.85 37.12 0.18" fill="none" stroke="#00793f" stroke-width="0.28"/><polyline points="43.3 47.99 43.3 1.85 41.62 0.14" fill="none" stroke="#00793f" stroke-width="0.28"/><line x1="1.72" y1="38.75" x2="47.96" y2="38.75" fill="none" stroke="#00793f" stroke-width="0.28"/><line x1="1.72" y1="43.32" x2="47.96" y2="43.32" fill="none" stroke="#00793f" stroke-width="0.28"/><line x1="1.72" y1="34.13" x2="47.96" y2="34.13" fill="none" stroke="#00793f" stroke-width="0.28"/><line x1="1.72" y1="29.52" x2="47.96" y2="29.52" fill="none" stroke="#00793f" stroke-width="0.28"/><line x1="1.72" y1="24.9" x2="47.96" y2="24.9" fill="none" stroke="#00793f" stroke-width="0.28"/><line x1="1.72" y1="20.29" x2="47.96" y2="20.29" fill="none" stroke="#00793f" stroke-width="0.28"/><line x1="1.72" y1="15.67" x2="47.96" y2="15.67" fill="none" stroke="#00793f" stroke-width="0.28"/><line x1="1.72" y1="11.06" x2="47.96" y2="11.06" fill="none" stroke="#00793f" stroke-width="0.28"/><line x1="1.72" y1="6.44" x2="47.96" y2="6.44" fill="none" stroke="#00793f" stroke-width="0.28"/></svg>