<svg xmlns="http://www.w3.org/2000/svg" xmlns:xlink="http://www.w3.org/1999/xlink" width="22" height="22" viewBox="0 0 68.56 68.72"><defs><style>.a{fill:#0db14b;}.b{fill:#dbeab7;}.c{fill:url(#a);}.d{fill:none;stroke:#00793f;stroke-width:0.4px;}</style><linearGradient id="a" x1="71.13" y1="65.55" x2="-0.17" y2="5.73" gradientUnits="userSpaceOnUse"><stop offset="0" stop-color="#acd58a"/><stop offset="1" stop-color="#8dc63f"/></linearGradient></defs><title>hundreds</title><path class="a" d="M265.26,455l.39.38v-5.55a2.18,2.18,0,0,0-.25-1.4l-1.82-1.76c-.22-.23-.39,0-.39.6v5.67l.39.4Z" transform="translate(-263.19 -386.63)"/><path class="a" d="M265.26,448.3c.21.24.39,0,.39-.59v-4.54a2.21,2.21,0,0,0-.25-1.41L263.58,440c-.22-.24-.39,0-.39.59v4.59a2.51,2.51,0,0,0,.39,1.45Z" transform="translate(-263.19 -386.63)"/><path class="a" d="M265.26,441.68c.21.23.39,0,.39-.6v-4.54a2.18,2.18,0,0,0-.25-1.4l-1.82-1.76c-.22-.23-.39,0-.39.6v4.59a2.56,2.56,0,0,0,.39,1.45Z" transform="translate(-263.19 -386.63)"/><path class="a" d="M265.26,435.05c.21.24.39,0,.39-.59v-4.54a2.21,2.21,0,0,0-.25-1.41l-1.82-1.75c-.22-.24-.39,0-.39.59v4.59a2.51,2.51,0,0,0,.39,1.45Z" transform="translate(-263.19 -386.63)"/><path class="a" d="M265.26,428.43c.21.23.39,0,.39-.6v-4.54a2.18,2.18,0,0,0-.25-1.4l-1.82-1.76c-.22-.23-.39,0-.39.6v4.59a2.56,2.56,0,0,0,.39,1.45Z" transform="translate(-263.19 -386.63)"/><path class="a" d="M265.26,421.8c.21.24.39,0,.39-.59v-4.55a2.19,2.19,0,0,0-.25-1.4l-1.82-1.75c-.22-.24-.39,0-.39.59v4.59a2.51,2.51,0,0,0,.39,1.45Z" transform="translate(-263.19 -386.63)"/><path class="a" d="M265.26,415.17c.21.24.39,0,.39-.59V410a2.17,2.17,0,0,0-.25-1.4l-1.82-1.76c-.22-.23-.39,0-.39.6v4.59a2.56,2.56,0,0,0,.39,1.45Z" transform="translate(-263.19 -386.63)"/><path class="a" d="M265.26,408.55c.21.24.39,0,.39-.59v-4.55a2.19,2.19,0,0,0-.25-1.4l-1.82-1.76c-.22-.23-.39,0-.39.6v4.59a2.51,2.51,0,0,0,.39,1.45Z" transform="translate(-263.19 -386.63)"/><path class="a" d="M265.26,401.92c.21.24.39,0,.39-.59v-4.54a2.17,2.17,0,0,0-.25-1.4l-1.82-1.76c-.22-.23-.39,0-.39.6v4.59a2.56,2.56,0,0,0,.39,1.45Z" transform="translate(-263.19 -386.63)"/><path class="b" d="M271.56,389.33c.58,0,.81-.5.52-.75l-1.55-1.49a2.85,2.85,0,0,0-1.58-.46h-4.77c-.58,0-.83.21-.54.46l1.87,1.78a1.7,1.7,0,0,0,1.23.46Z" transform="translate(-263.19 -386.63)"/><path class="b" d="M278.15,389.33c.58,0,.8-.5.52-.75l-1.52-1.49a2.74,2.74,0,0,0-1.55-.46h-4.66c-.57,0-.81.21-.53.46l1.83,1.78a1.62,1.62,0,0,0,1.2.46Z" transform="translate(-263.19 -386.63)"/><path class="b" d="M284.72,389.33c.57,0,.79-.5.51-.75l-1.52-1.49a2.72,2.72,0,0,0-1.55-.46h-4.65c-.58,0-.81.21-.54.46l1.84,1.78a1.6,1.6,0,0,0,1.19.46Z" transform="translate(-263.19 -386.63)"/><path class="b" d="M291.28,389.33c.58,0,.8-.5.52-.75l-1.53-1.49a2.68,2.68,0,0,0-1.54-.46h-4.66c-.57,0-.81.21-.53.46l1.83,1.78a1.62,1.62,0,0,0,1.2.46Z" transform="translate(-263.19 -386.63)"/><path class="b" d="M297.84,389.33c.58,0,.8-.5.52-.75l-1.52-1.49a2.72,2.72,0,0,0-1.55-.46h-4.65c-.58,0-.82.21-.54.46l1.83,1.78a1.64,1.64,0,0,0,1.2.46Z" transform="translate(-263.19 -386.63)"/><path class="b" d="M304.41,389.33c.57,0,.8-.5.52-.75l-1.53-1.49a2.71,2.71,0,0,0-1.54-.46H297.2c-.57,0-.81.21-.53.46l1.83,1.78a1.62,1.62,0,0,0,1.2.46Z" transform="translate(-263.19 -386.63)"/><path class="b" d="M311,389.33c.57,0,.79-.5.51-.75L310,387.09a2.72,2.72,0,0,0-1.55-.46h-4.65c-.58,0-.82.21-.54.46l1.83,1.78a1.64,1.64,0,0,0,1.2.46Z" transform="translate(-263.19 -386.63)"/><path class="b" d="M317.54,389.33c.57,0,.8-.5.52-.75l-1.53-1.49a2.71,2.71,0,0,0-1.54-.46h-4.66c-.57,0-.81.21-.53.46l1.83,1.78a1.62,1.62,0,0,0,1.2.46Z" transform="translate(-263.19 -386.63)"/><path class="b" d="M324.1,389.33c.58,0,.8-.5.52-.75l-1.52-1.49a2.72,2.72,0,0,0-1.55-.46H316.9c-.58,0-.82.21-.54.46l1.83,1.78a1.64,1.64,0,0,0,1.2.46Z" transform="translate(-263.19 -386.63)"/><path class="b" d="M331.74,389.26l-3-2.63h-5.29c-.57,0-.81.21-.53.46l1.83,1.78a1.62,1.62,0,0,0,1.2.46Z" transform="translate(-263.19 -386.63)"/><path class="a" d="M265.26,395.3c.21.24.39,0,.39-.59v-4.55a2.19,2.19,0,0,0-.25-1.4L263.58,387c-.22-.23-.39,0-.39.6v4.59a2.51,2.51,0,0,0,.39,1.45Z" transform="translate(-263.19 -386.63)"/><rect class="c" x="2.45" y="2.61" width="66.06" height="66.06"/><line class="d" x1="9.06" y1="68.7" x2="9.06" y2="2.65"/><line class="d" x1="15.66" y1="68.7" x2="15.66" y2="2.65"/><line class="d" x1="22.25" y1="68.7" x2="22.25" y2="2.65"/><line class="d" x1="28.85" y1="68.7" x2="28.85" y2="2.65"/><line class="d" x1="35.45" y1="68.7" x2="35.45" y2="2.65"/><line class="d" x1="42.05" y1="68.7" x2="42.05" y2="2.65"/><line class="d" x1="48.64" y1="2.65" x2="46.44" y2="0.28"/><line class="d" x1="42.08" y1="2.65" x2="39.88" y2="0.28"/><line class="d" x1="35.47" y1="2.65" x2="33.27" y2="0.28"/><line class="d" x1="28.87" y1="2.65" x2="26.67" y2="0.28"/><line class="d" x1="22.27" y1="2.65" x2="20.07" y2="0.28"/><line class="d" x1="15.66" y1="2.65" x2="13.46" y2="0.28"/><line class="d" x1="9.06" y1="2.65" x2="6.86" y2="0.28"/><line class="d" x1="2.45" y1="9.22" x2="0.25" y2="6.84"/><line class="d" x1="2.45" y1="15.79" x2="0.25" y2="13.41"/><line class="d" x1="2.45" y1="22.35" x2="0.25" y2="19.97"/><line class="d" x1="2.45" y1="28.92" x2="0.25" y2="26.54"/><line class="d" x1="2.45" y1="35.48" x2="0.25" y2="33.1"/><line class="d" x1="2.45" y1="42.3" x2="0.25" y2="39.92"/><line class="d" x1="2.45" y1="48.86" x2="0.25" y2="46.49"/><line class="d" x1="2.45" y1="55.43" x2="0.25" y2="53.05"/><line class="d" x1="2.45" y1="62" x2="0.25" y2="59.62"/><line class="d" x1="48.64" y1="68.7" x2="48.64" y2="2.65"/><polyline class="d" points="55.24 68.7 55.24 2.65 53.02 0.26"/><polyline class="d" points="61.84 68.7 61.84 2.65 59.44 0.19"/><line class="d" x1="2.46" y1="55.47" x2="68.5" y2="55.47"/><line class="d" x1="2.46" y1="62.02" x2="68.5" y2="62.02"/><line class="d" x1="2.46" y1="48.87" x2="68.5" y2="48.87"/><line class="d" x1="2.46" y1="42.26" x2="68.5" y2="42.26"/><line class="d" x1="2.46" y1="35.65" x2="68.5" y2="35.65"/><line class="d" x1="2.46" y1="29.04" x2="68.5" y2="29.04"/><line class="d" x1="2.46" y1="22.44" x2="68.5" y2="22.44"/><line class="d" x1="2.46" y1="15.83" x2="68.5" y2="15.83"/><line class="d" x1="2.46" y1="9.22" x2="68.5" y2="9.22"/></svg>