<?xml version="1.0" encoding="UTF-8"?>
<svg width="16px" height="16px" viewBox="0 0 16 16" version="1.1" xmlns="http://www.w3.org/2000/svg" xmlns:xlink="http://www.w3.org/1999/xlink">
    <g id="iTools" stroke="none" stroke-width="1" fill="none" fill-rule="evenodd">
        <g id="Icon-Sheet" transform="translate(-192.000000, -93.000000)">
            <g id="Icon-Layout-H" transform="translate(192.000000, 93.000000)">
                <rect id="Placeholder" x="0" y="0" width="16" height="16"></rect>
                <path d="M14.7180574,12 C15.1638168,12 15.3254599,12.0464128 15.4884229,12.1335664 C15.6513858,12.2207199 15.7792801,12.3486142 15.8664336,12.5115771 C15.9535872,12.6745401 16,12.8361832 16,13.2819426 L16,14.7180574 C16,15.1638168 15.9535872,15.3254599 15.8664336,15.4884229 C15.7792801,15.6513858 15.6513858,15.7792801 15.4884229,15.8664336 C15.3254599,15.9535872 15.1638168,16 14.7180574,16 L6.2819426,16 C5.83618323,16 5.67454011,15.9535872 5.51157715,15.8664336 C5.34861419,15.7792801 5.2207199,15.6513858 5.13356635,15.4884229 C5.04641281,15.3254599 5,15.1638168 5,14.7180574 L5,13.2819426 C5,12.8361832 5.04641281,12.6745401 5.13356635,12.5115771 C5.2207199,12.3486142 5.34861419,12.2207199 5.51157715,12.1335664 C5.67454011,12.0464128 5.83618323,12 6.2819426,12 L14.7180574,12 Z M14.7180574,5.17920154e-17 C15.1638168,-3.00926524e-17 15.3254599,0.0464128056 15.4884229,0.133566352 C15.6513858,0.220719898 15.7792801,0.348614185 15.8664336,0.511577148 C15.9535872,0.674540111 16,0.83618323 16,1.2819426 L16,8.7180574 C16,9.16381677 15.9535872,9.32545989 15.8664336,9.48842285 C15.7792801,9.65138581 15.6513858,9.7792801 15.4884229,9.86643365 C15.3254599,9.95358719 15.1638168,10 14.7180574,10 L1.2819426,10 C0.83618323,10 0.674540111,9.95358719 0.511577148,9.86643365 C0.348614185,9.7792801 0.220719898,9.65138581 0.133566352,9.48842285 C0.0464128056,9.32545989 2.00617683e-17,9.16381677 -3.45280103e-17,8.7180574 L3.45280103e-17,1.2819426 C-2.00617683e-17,0.83618323 0.0464128056,0.674540111 0.133566352,0.511577148 C0.220719898,0.348614185 0.348614185,0.220719898 0.511577148,0.133566352 C0.674540111,0.0464128056 0.83618323,3.00926524e-17 1.2819426,-5.17920154e-17 L14.7180574,5.17920154e-17 Z" id="Shape" fill="#000000"></path>
            </g>
        </g>
    </g>
</svg>