<?xml version="1.0" encoding="UTF-8"?>
<svg width="16px" height="16px" viewBox="0 0 16 16" version="1.1" xmlns="http://www.w3.org/2000/svg" xmlns:xlink="http://www.w3.org/1999/xlink">
    <g id="iTools" stroke="none" stroke-width="1" fill="none" fill-rule="evenodd">
        <g id="Icon-Sheet" transform="translate(-24.000000, -93.000000)">
            <g id="Icon-Line-Up" transform="translate(24.000000, 93.000000)">
                <rect id="Placeholder" x="0" y="0" width="16" height="16"></rect>
                <path d="M15.999975,11.9311814 C15.999975,12.3006808 15.7844753,12.6351803 15.4510759,12.78328 L8.40080687,15.9148751 C8.14528727,16.028375 7.85468772,16.028375 7.59916812,15.9148751 L0.548944128,12.78328 C0.215474649,12.6351803 0,12.3006808 0,11.9311814 C0,11.2603824 0.678074926,10.8101831 1.28336798,11.0789827 L7.59916812,13.8843783 C7.85468772,13.9977781 8.14528727,13.9977781 8.40080687,13.8843783 L14.716577,11.0789827 C15.3218761,10.8101831 15.999975,11.2603824 15.999975,11.9311814 Z M14.716577,7.07899893 C15.3218761,6.81013935 15.999975,7.26038865 15.999975,7.9311576 C15.999975,8.30069702 15.7844753,8.6351865 15.4510759,8.78330627 L15.4510759,8.78330627 L8.40080687,11.9148814 C8.14528727,12.0283812 7.85468772,12.0283812 7.59916812,11.9148814 L7.59916812,11.9148814 L0.548944128,8.78330627 C0.215474649,8.6351865 0,8.30069702 0,7.9311576 C0,7.26038865 0.678074926,6.81013935 1.28336798,7.07899893 L1.28336798,7.07899893 L7.59916812,9.88433455 C7.85468772,9.99783437 8.14528727,9.99783437 8.40080687,9.88433455 L8.40080687,9.88433455 Z M8.39180688,0.0800663625 L15.382076,3.05834521 C16.2059747,3.40935466 16.2059747,4.59063282 15.382076,4.94164227 L8.39181688,7.91991762 C8.14124727,8.02667745 7.85872771,8.02667745 7.6081581,7.91991762 L0.61788402,4.94164227 C-0.205961693,4.59063282 -0.205960693,3.40935466 0.61788502,3.05834521 L7.6081581,0.0800665625 C7.85872771,-0.0266887708 8.14124727,-0.0266888708 8.39180688,0.0800663625 Z" id="Shape" fill="#000000"></path>
            </g>
        </g>
    </g>
</svg>