<?xml version="1.0" encoding="UTF-8"?>
<svg width="16px" height="16px" viewBox="0 0 16 16" version="1.1" xmlns="http://www.w3.org/2000/svg" xmlns:xlink="http://www.w3.org/1999/xlink">
    <g id="iTools" stroke="none" stroke-width="1" fill="none" fill-rule="evenodd">
        <g id="Icon-Sheet" transform="translate(-248.000000, -93.000000)">
            <g id="Icon-Layout-V" transform="translate(248.000000, 93.000000)">
                <rect id="Placeholder" x="0" y="0" width="16" height="16"></rect>
                <path d="M8.7180574,1 C9.16381677,1 9.32545989,1.04641281 9.48842285,1.13356635 C9.65138581,1.2207199 9.7792801,1.34861419 9.86643365,1.51157715 C9.95358719,1.67454011 10,1.83618323 10,2.2819426 L10,13.7180574 C10,14.1638168 9.95358719,14.3254599 9.86643365,14.4884229 C9.7792801,14.6513858 9.65138581,14.7792801 9.48842285,14.8664336 C9.32545989,14.9535872 9.16381677,15 8.7180574,15 L1.2819426,15 C0.83618323,15 0.674540111,14.9535872 0.511577148,14.8664336 C0.348614185,14.7792801 0.220719898,14.6513858 0.133566352,14.4884229 C0.0464128056,14.3254599 2.00617683e-17,14.1638168 -3.45280103e-17,13.7180574 L3.45280103e-17,2.2819426 C-2.00617683e-17,1.83618323 0.0464128056,1.67454011 0.133566352,1.51157715 C0.220719898,1.34861419 0.348614185,1.2207199 0.511577148,1.13356635 C0.674540111,1.04641281 0.83618323,1 1.2819426,1 L8.7180574,1 Z M14.7180574,1 C15.1638168,1 15.3254599,1.04641281 15.4884229,1.13356635 C15.6513858,1.2207199 15.7792801,1.34861419 15.8664336,1.51157715 C15.9535872,1.67454011 16,1.83618323 16,2.2819426 L16,13.7180574 C16,14.1638168 15.9535872,14.3254599 15.8664336,14.4884229 C15.7792801,14.6513858 15.6513858,14.7792801 15.4884229,14.8664336 C15.3254599,14.9535872 15.1638168,15 14.7180574,15 L13.2819426,15 C12.8361832,15 12.6745401,14.9535872 12.5115771,14.8664336 C12.3486142,14.7792801 12.2207199,14.6513858 12.1335664,14.4884229 C12.0464128,14.3254599 12,14.1638168 12,13.7180574 L12,2.2819426 C12,1.83618323 12.0464128,1.67454011 12.1335664,1.51157715 C12.2207199,1.34861419 12.3486142,1.2207199 12.5115771,1.13356635 C12.6745401,1.04641281 12.8361832,1 13.2819426,1 L14.7180574,1 Z" id="Shape" fill="#000000"></path>
            </g>
        </g>
    </g>
</svg>