<svg xmlns="http://www.w3.org/2000/svg" width="6" height="35" viewBox="0 0 9.96 68.48"><title>tens</title><rect x="3.21" y="1.84" width="6.74" height="66.62" style="fill:#aed477"/><polygon points="9.95 1.85 3.21 1.85 0.04 0.01 6.78 0.01 9.95 1.85" style="fill:#dbeab7"/><polygon points="3.23 68.48 0.03 66.12 0.03 0 3.23 1.86 3.23 68.48" style="fill:#0db14b"/><rect x="3.22" y="8.52" width="6.74" height="0.37" style="fill:#00793f"/><polygon points="3.25 8.89 0 6.94 0 6.57 3.25 8.52 3.25 8.89" style="fill:#00793f"/><rect x="3.22" y="15.1" width="6.74" height="0.37" style="fill:#00793f"/><polygon points="3.25 15.46 0 13.52 0 13.15 3.25 15.1 3.25 15.46" style="fill:#00793f"/><rect x="3.22" y="21.84" width="6.74" height="0.37" style="fill:#00793f"/><polygon points="3.25 22.21 0 20.26 0 19.89 3.25 21.84 3.25 22.21" style="fill:#00793f"/><rect x="3.22" y="28.41" width="6.74" height="0.37" style="fill:#00793f"/><polygon points="3.25 28.78 0 26.83 0 26.46 3.25 28.41 3.25 28.78" style="fill:#00793f"/><rect x="3.22" y="35.15" width="6.74" height="0.37" style="fill:#00793f"/><polygon points="3.25 35.52 0 33.57 0 33.21 3.25 35.15 3.25 35.52" style="fill:#00793f"/><rect x="3.22" y="41.73" width="6.74" height="0.37" style="fill:#00793f"/><polygon points="3.25 42.1 0 40.15 0 39.78 3.25 41.73 3.25 42.1" style="fill:#00793f"/><rect x="3.22" y="48.47" width="6.74" height="0.37" style="fill:#00793f"/><polygon points="3.25 48.84 0 46.89 0 46.52 3.25 48.47 3.25 48.84" style="fill:#00793f"/><rect x="3.22" y="55.04" width="6.74" height="0.37" style="fill:#00793f"/><polygon points="3.25 55.41 0 53.46 0 53.1 3.25 55.04 3.25 55.41" style="fill:#00793f"/><rect x="3.22" y="61.79" width="6.74" height="0.37" style="fill:#00793f"/><polygon points="3.25 62.15 0 60.21 0 59.84 3.25 61.79 3.25 62.15" style="fill:#00793f"/></svg>