<svg xmlns="http://www.w3.org/2000/svg" xmlns:xlink="http://www.w3.org/1999/xlink" width="25" height="25" viewBox="0 0 88.2 81.77"><defs><linearGradient id="a" x1="90.78" y1="78.57" x2="19.49" y2="18.74" gradientUnits="userSpaceOnUse"><stop offset="0" stop-color="#acd58a"/><stop offset="1" stop-color="#8dc63f"/></linearGradient></defs><title>thousands</title><rect x="22.1" y="15.62" width="66.06" height="66.06" style="fill:url(#a)"/><line x1="28.71" y1="81.71" x2="28.71" y2="15.67" style="fill:none;stroke:#00793f;stroke-width:0.4px"/><line x1="35.31" y1="81.71" x2="35.31" y2="15.67" style="fill:none;stroke:#00793f;stroke-width:0.4px"/><line x1="41.91" y1="81.71" x2="41.91" y2="15.67" style="fill:none;stroke:#00793f;stroke-width:0.4px"/><line x1="48.5" y1="81.71" x2="48.5" y2="15.67" style="fill:none;stroke:#00793f;stroke-width:0.4px"/><line x1="55.1" y1="81.71" x2="55.1" y2="15.67" style="fill:none;stroke:#00793f;stroke-width:0.4px"/><line x1="61.7" y1="81.71" x2="61.7" y2="15.67" style="fill:none;stroke:#00793f;stroke-width:0.4px"/><line x1="68.3" y1="81.71" x2="68.3" y2="15.67" style="fill:none;stroke:#00793f;stroke-width:0.4px"/><line x1="74.89" y1="81.71" x2="74.89" y2="15.67" style="fill:none;stroke:#00793f;stroke-width:0.4px"/><line x1="81.49" y1="81.71" x2="81.49" y2="15.67" style="fill:none;stroke:#00793f;stroke-width:0.4px"/><line x1="22.11" y1="68.48" x2="88.15" y2="68.48" style="fill:none;stroke:#00793f;stroke-width:0.4px"/><line x1="22.11" y1="75.03" x2="88.15" y2="75.03" style="fill:none;stroke:#00793f;stroke-width:0.4px"/><line x1="22.11" y1="61.88" x2="88.15" y2="61.88" style="fill:none;stroke:#00793f;stroke-width:0.4px"/><line x1="22.11" y1="55.27" x2="88.15" y2="55.27" style="fill:none;stroke:#00793f;stroke-width:0.4px"/><line x1="22.11" y1="48.66" x2="88.15" y2="48.66" style="fill:none;stroke:#00793f;stroke-width:0.4px"/><line x1="22.11" y1="42.05" x2="88.15" y2="42.05" style="fill:none;stroke:#00793f;stroke-width:0.4px"/><line x1="22.11" y1="35.45" x2="88.15" y2="35.45" style="fill:none;stroke:#00793f;stroke-width:0.4px"/><line x1="22.11" y1="28.84" x2="88.15" y2="28.84" style="fill:none;stroke:#00793f;stroke-width:0.4px"/><line x1="22.11" y1="22.23" x2="88.15" y2="22.23" style="fill:none;stroke:#00793f;stroke-width:0.4px"/><polygon points="22.35 15.71 22.35 81.77 0.14 66.29 0.14 0.23 22.35 15.71" style="fill:#0db14b"/><line x1="2.36" y1="67.86" x2="2.36" y2="1.82" style="fill:none;stroke:#00793f;stroke-width:0.23194399999999998px"/><line x1="4.58" y1="69.41" x2="4.58" y2="3.37" style="fill:none;stroke:#00793f;stroke-width:0.23194399999999998px"/><line x1="6.8" y1="70.96" x2="6.8" y2="4.91" style="fill:none;stroke:#00793f;stroke-width:0.23194399999999998px"/><line x1="9.02" y1="72.5" x2="9.02" y2="6.46" style="fill:none;stroke:#00793f;stroke-width:0.23194399999999998px"/><line x1="11.23" y1="74.05" x2="11.23" y2="8" style="fill:none;stroke:#00793f;stroke-width:0.23194399999999998px"/><line x1="13.45" y1="75.59" x2="13.45" y2="9.55" style="fill:none;stroke:#00793f;stroke-width:0.23194399999999998px"/><line x1="15.67" y1="77.14" x2="15.67" y2="11.1" style="fill:none;stroke:#00793f;stroke-width:0.23194399999999998px"/><line x1="17.89" y1="78.69" x2="17.89" y2="12.64" style="fill:none;stroke:#00793f;stroke-width:0.23194399999999998px"/><line x1="20.11" y1="80.23" x2="20.11" y2="14.19" style="fill:none;stroke:#00793f;stroke-width:0.23194399999999998px"/><line x1="0.14" y1="53.09" x2="22.35" y2="68.57" style="fill:none;stroke:#00793f;stroke-width:0.23194399999999998px"/><line x1="0.14" y1="59.64" x2="22.35" y2="75.11" style="fill:none;stroke:#00793f;stroke-width:0.23194399999999998px"/><line x1="0.14" y1="46.48" x2="22.35" y2="61.96" style="fill:none;stroke:#00793f;stroke-width:0.23194399999999998px"/><line x1="0.14" y1="39.88" x2="22.35" y2="55.35" style="fill:none;stroke:#00793f;stroke-width:0.23194399999999998px"/><line x1="0.14" y1="33.27" x2="22.35" y2="48.74" style="fill:none;stroke:#00793f;stroke-width:0.23194399999999998px"/><line x1="0.14" y1="26.66" x2="22.35" y2="42.14" style="fill:none;stroke:#00793f;stroke-width:0.23194399999999998px"/><line x1="0.14" y1="20.05" x2="22.35" y2="35.53" style="fill:none;stroke:#00793f;stroke-width:0.23194399999999998px"/><line x1="0.14" y1="13.45" x2="22.35" y2="28.92" style="fill:none;stroke:#00793f;stroke-width:0.23194399999999998px"/><line x1="0.14" y1="6.84" x2="22.35" y2="22.32" style="fill:none;stroke:#00793f;stroke-width:0.23194399999999998px"/><polygon points="22.19 15.72 88.2 15.78 66.02 0.13 0 0.07 22.19 15.72" style="fill:#dbeab7"/><line x1="68.26" y1="1.69" x2="2.26" y2="1.64" style="fill:none;stroke:#00793f;stroke-width:0.194482px"/><line x1="70.48" y1="3.25" x2="4.48" y2="3.2" style="fill:none;stroke:#00793f;stroke-width:0.194482px"/><line x1="72.69" y1="4.82" x2="6.69" y2="4.76" style="fill:none;stroke:#00793f;stroke-width:0.194482px"/><line x1="74.91" y1="6.38" x2="8.91" y2="6.33" style="fill:none;stroke:#00793f;stroke-width:0.194482px"/><line x1="77.12" y1="7.94" x2="11.13" y2="7.89" style="fill:none;stroke:#00793f;stroke-width:0.194482px"/><line x1="79.34" y1="9.51" x2="13.34" y2="9.45" style="fill:none;stroke:#00793f;stroke-width:0.194482px"/><line x1="81.55" y1="11.07" x2="15.56" y2="11.01" style="fill:none;stroke:#00793f;stroke-width:0.194482px"/><line x1="83.77" y1="12.63" x2="17.78" y2="12.58" style="fill:none;stroke:#00793f;stroke-width:0.194482px"/><line x1="85.99" y1="14.19" x2="19.99" y2="14.14" style="fill:none;stroke:#00793f;stroke-width:0.194482px"/><line x1="52.82" y1="0.12" x2="75.01" y2="15.76" style="fill:none;stroke:#00793f;stroke-width:0.194482px"/><line x1="59.37" y1="0.12" x2="81.55" y2="15.76" style="fill:none;stroke:#00793f;stroke-width:0.194482px"/><line x1="46.22" y1="0.11" x2="68.4" y2="15.76" style="fill:none;stroke:#00793f;stroke-width:0.194482px"/><line x1="39.62" y1="0.11" x2="61.8" y2="15.75" style="fill:none;stroke:#00793f;stroke-width:0.194482px"/><line x1="33.02" y1="0.1" x2="55.2" y2="15.74" style="fill:none;stroke:#00793f;stroke-width:0.194482px"/><line x1="26.42" y1="0.1" x2="48.6" y2="15.74" style="fill:none;stroke:#00793f;stroke-width:0.194482px"/><line x1="19.81" y1="0.09" x2="42" y2="15.73" style="fill:none;stroke:#00793f;stroke-width:0.194482px"/><line x1="13.21" y1="0.09" x2="35.39" y2="15.73" style="fill:none;stroke:#00793f;stroke-width:0.194482px"/><line x1="6.61" y1="0.08" x2="28.79" y2="15.72" style="fill:none;stroke:#00793f;stroke-width:0.194482px"/></svg>