<svg xmlns="http://www.w3.org/2000/svg" xmlns:xlink="http://www.w3.org/1999/xlink" width="62.62" height="58.05" viewBox="0 0 62.62 58.05"><defs><linearGradient id="a" x1="64.45" y1="55.78" x2="13.83" y2="13.3" gradientUnits="userSpaceOnUse"><stop offset="0" stop-color="#acd58a"/><stop offset="1" stop-color="#8dc63f"/></linearGradient></defs><rect x="15.69" y="11.09" width="46.9" height="46.9" fill="url(#a)"/><line x1="20.38" y1="58.01" x2="20.38" y2="11.12" fill="none" stroke="#00793f" stroke-width="0.28"/><line x1="25.07" y1="58.01" x2="25.07" y2="11.12" fill="none" stroke="#00793f" stroke-width="0.28"/><line x1="29.75" y1="58.01" x2="29.75" y2="11.12" fill="none" stroke="#00793f" stroke-width="0.28"/><line x1="34.43" y1="58.01" x2="34.43" y2="11.12" fill="none" stroke="#00793f" stroke-width="0.28"/><line x1="39.12" y1="58.01" x2="39.12" y2="11.12" fill="none" stroke="#00793f" stroke-width="0.28"/><line x1="43.8" y1="58.01" x2="43.8" y2="11.12" fill="none" stroke="#00793f" stroke-width="0.28"/><line x1="48.49" y1="58.01" x2="48.49" y2="11.12" fill="none" stroke="#00793f" stroke-width="0.28"/><line x1="53.17" y1="58.01" x2="53.17" y2="11.12" fill="none" stroke="#00793f" stroke-width="0.28"/><line x1="57.85" y1="58.01" x2="57.85" y2="11.12" fill="none" stroke="#00793f" stroke-width="0.28"/><line x1="15.7" y1="48.62" x2="62.58" y2="48.62" fill="none" stroke="#00793f" stroke-width="0.28"/><line x1="15.7" y1="53.27" x2="62.58" y2="53.27" fill="none" stroke="#00793f" stroke-width="0.28"/><line x1="15.7" y1="43.93" x2="62.58" y2="43.93" fill="none" stroke="#00793f" stroke-width="0.28"/><line x1="15.7" y1="39.24" x2="62.58" y2="39.24" fill="none" stroke="#00793f" stroke-width="0.28"/><line x1="15.7" y1="34.55" x2="62.58" y2="34.55" fill="none" stroke="#00793f" stroke-width="0.28"/><line x1="15.7" y1="29.86" x2="62.58" y2="29.86" fill="none" stroke="#00793f" stroke-width="0.28"/><line x1="15.7" y1="25.16" x2="62.58" y2="25.16" fill="none" stroke="#00793f" stroke-width="0.28"/><line x1="15.7" y1="20.47" x2="62.58" y2="20.47" fill="none" stroke="#00793f" stroke-width="0.28"/><line x1="15.7" y1="15.78" x2="62.58" y2="15.78" fill="none" stroke="#00793f" stroke-width="0.28"/><polygon points="15.87 11.15 15.87 58.05 0.1 47.06 0.1 0.16 15.87 11.15" fill="#0db14b"/><line x1="1.68" y1="48.18" x2="1.68" y2="1.29" fill="none" stroke="#00793f" stroke-width="0.16"/><line x1="3.25" y1="49.28" x2="3.25" y2="2.39" fill="none" stroke="#00793f" stroke-width="0.16"/><line x1="4.83" y1="50.37" x2="4.83" y2="3.49" fill="none" stroke="#00793f" stroke-width="0.16"/><line x1="6.4" y1="51.47" x2="6.4" y2="4.58" fill="none" stroke="#00793f" stroke-width="0.16"/><line x1="7.97" y1="52.57" x2="7.97" y2="5.68" fill="none" stroke="#00793f" stroke-width="0.16"/><line x1="9.55" y1="53.67" x2="9.55" y2="6.78" fill="none" stroke="#00793f" stroke-width="0.16"/><line x1="11.13" y1="54.76" x2="11.13" y2="7.88" fill="none" stroke="#00793f" stroke-width="0.16"/><line x1="12.7" y1="55.86" x2="12.7" y2="8.97" fill="none" stroke="#00793f" stroke-width="0.16"/><line x1="14.27" y1="56.96" x2="14.27" y2="10.07" fill="none" stroke="#00793f" stroke-width="0.16"/><line x1="0.1" y1="37.69" x2="15.87" y2="48.68" fill="none" stroke="#00793f" stroke-width="0.16"/><line x1="0.1" y1="42.34" x2="15.87" y2="53.33" fill="none" stroke="#00793f" stroke-width="0.16"/><line x1="0.1" y1="33" x2="15.87" y2="43.99" fill="none" stroke="#00793f" stroke-width="0.16"/><line x1="0.1" y1="28.31" x2="15.87" y2="39.3" fill="none" stroke="#00793f" stroke-width="0.16"/><line x1="0.1" y1="23.62" x2="15.87" y2="34.61" fill="none" stroke="#00793f" stroke-width="0.16"/><line x1="0.1" y1="18.93" x2="15.87" y2="29.91" fill="none" stroke="#00793f" stroke-width="0.16"/><line x1="0.1" y1="14.24" x2="15.87" y2="25.22" fill="none" stroke="#00793f" stroke-width="0.16"/><line x1="0.1" y1="9.55" x2="15.87" y2="20.53" fill="none" stroke="#00793f" stroke-width="0.16"/><line x1="0.1" y1="4.86" x2="15.87" y2="15.84" fill="none" stroke="#00793f" stroke-width="0.16"/><polygon points="15.75 11.16 62.62 11.2 46.87 0.09 0 0.05 15.75 11.16" fill="#dbeab7"/><line x1="48.46" y1="1.2" x2="1.61" y2="1.16" fill="none" stroke="#00793f" stroke-width="0.14"/><line x1="50.03" y1="2.31" x2="3.18" y2="2.27" fill="none" stroke="#00793f" stroke-width="0.14"/><line x1="51.6" y1="3.42" x2="4.75" y2="3.38" fill="none" stroke="#00793f" stroke-width="0.14"/><line x1="53.18" y1="4.53" x2="6.33" y2="4.49" fill="none" stroke="#00793f" stroke-width="0.14"/><line x1="54.75" y1="5.64" x2="7.9" y2="5.6" fill="none" stroke="#00793f" stroke-width="0.14"/><line x1="56.32" y1="6.75" x2="9.47" y2="6.71" fill="none" stroke="#00793f" stroke-width="0.14"/><line x1="57.9" y1="7.86" x2="11.05" y2="7.82" fill="none" stroke="#00793f" stroke-width="0.14"/><line x1="59.47" y1="8.97" x2="12.62" y2="8.93" fill="none" stroke="#00793f" stroke-width="0.14"/><line x1="61.04" y1="10.08" x2="14.19" y2="10.04" fill="none" stroke="#00793f" stroke-width="0.14"/><line x1="37.5" y1="0.08" x2="53.25" y2="11.19" fill="none" stroke="#00793f" stroke-width="0.14"/><line x1="42.15" y1="0.09" x2="57.89" y2="11.19" fill="none" stroke="#00793f" stroke-width="0.14"/><line x1="32.82" y1="0.08" x2="48.56" y2="11.19" fill="none" stroke="#00793f" stroke-width="0.14"/><line x1="28.13" y1="0.08" x2="43.88" y2="11.18" fill="none" stroke="#00793f" stroke-width="0.14"/><line x1="23.44" y1="0.07" x2="39.19" y2="11.18" fill="none" stroke="#00793f" stroke-width="0.14"/><line x1="18.75" y1="0.07" x2="34.5" y2="11.17" fill="none" stroke="#00793f" stroke-width="0.14"/><line x1="14.07" y1="0.06" x2="29.81" y2="11.17" fill="none" stroke="#00793f" stroke-width="0.14"/><line x1="9.38" y1="0.06" x2="25.13" y2="11.17" fill="none" stroke="#00793f" stroke-width="0.14"/><line x1="4.69" y1="0.06" x2="20.44" y2="11.16" fill="none" stroke="#00793f" stroke-width="0.14"/></svg>